<?xml version="1.0" encoding="UTF-8"?>
<svg version="1.1" xmlns="http://www.w3.org/2000/svg" width="161" height="158">
<path d="M0 0 C53.13 0 106.26 0 161 0 C161 52.14 161 104.28 161 158 C107.87 158 54.74 158 0 158 C0 105.86 0 53.72 0 0 Z " fill="#F3F3F3" transform="translate(0,0)"/>
<path d="M0 0 C3.80625982 1.49531636 5.77940501 3.58980056 8 7 C8.25 9.8125 8.25 9.8125 8 12 C9.65 12.66 11.3 13.32 13 14 C12.67 15.65 12.34 17.3 12 19 C12.77730469 19.38414063 13.55460937 19.76828125 14.35546875 20.1640625 C17.50476258 22.35042601 18.11657063 23.78229036 19.3125 27.375 C19.63863281 28.31085937 19.96476562 29.24671875 20.30078125 30.2109375 C20.98353992 32.93434359 21.13711054 35.20700761 21 38 C18.69 38.66 16.38 39.32 14 40 C16.64 40.99 19.28 41.98 22 43 C23.09285188 62.15526498 18.32281866 78.42082838 5.8659668 93.14160156 C-4.378342 104.62220569 -16.24823535 111.04180385 -31 115 C-32.35931641 115.36738281 -32.35931641 115.36738281 -33.74609375 115.7421875 C-50.9894447 119.77023428 -68.1704381 115.04974457 -83 106 C-93.86193529 98.26201481 -93.86193529 98.26201481 -96 93 C-92.31747976 93.58887148 -90.49994074 95.10582217 -87.75 97.5625 C-83.39178021 101.14592516 -78.95110043 103.84765224 -73.9375 106.375 C-73.28942383 106.70830322 -72.64134766 107.04160645 -71.97363281 107.38500977 C-63.74499293 111.40540017 -55.70860402 112.36969214 -46.625 112.3125 C-45.69888916 112.30758545 -44.77277832 112.3026709 -43.81860352 112.29760742 C-37.1256242 112.18281008 -31.26790878 111.45741821 -25 109 C-24.04351562 108.67128906 -23.08703125 108.34257812 -22.1015625 108.00390625 C-6.27117644 102.12346721 5.59739997 90.53646395 12.71875 75.3046875 C16.48493604 65.59068327 18.55882263 55.41178594 19 45 C18.17757812 44.95101562 17.35515625 44.90203125 16.5078125 44.8515625 C9.52371816 44.3838056 2.81965265 43.58560773 -4 42 C-4 40.68 -4 39.36 -4 38 C2.93 37.34 9.86 36.68 17 36 C16.01 31.71 15.02 27.42 14 23 C-11.74 22.01 -11.74 22.01 -38 21 C-38 20.34 -38 19.68 -38 19 C-34.25073924 18.65800047 -30.50050426 18.32805829 -26.75 18 C-25.18378906 17.85691406 -25.18378906 17.85691406 -23.5859375 17.7109375 C-16.37162885 17.08747873 -9.23982132 16.88307153 -2 17 C-2.020625 16.030625 -2.04125 15.06125 -2.0625 14.0625 C-2 11 -2 11 -1 10 C0.99958364 9.95919217 3.00045254 9.95745644 5 10 C4.6390625 9.52949219 4.278125 9.05898438 3.90625 8.57421875 C3.21015625 7.64029297 3.21015625 7.64029297 2.5 6.6875 C2.0359375 6.07261719 1.571875 5.45773438 1.09375 4.82421875 C0 3 0 3 0 0 Z " fill="#172944" transform="translate(128,31)"/>
<path d="M0 0 C0.495 1.98 0.495 1.98 1 4 C-0.47943027 3.70967339 -1.95852623 3.41764321 -3.4375 3.125 C-4.82195312 2.85429687 -4.82195312 2.85429687 -6.234375 2.578125 C-7.87904357 2.23432423 -9.51852315 1.8599609 -11.140625 1.421875 C-28.04771068 -3.0952853 -43.89589218 1.36142501 -59 9 C-58.04746338 9.08302368 -58.04746338 9.08302368 -57.07568359 9.16772461 C-54.17523849 9.42190369 -51.27512281 9.67967067 -48.375 9.9375 C-47.37597656 10.02451172 -46.37695312 10.11152344 -45.34765625 10.20117188 C-40.52517874 10.63232053 -35.76269053 11.09785214 -31 12 C-31 12.66 -31 13.32 -31 14 C-40.9 14.99 -50.8 15.98 -61 17 C-56.38 17.66 -51.76 18.32 -47 19 C-50.87191538 20.93595769 -53.9065805 21.735274 -58.125 22.5625 C-58.79007568 22.69833496 -59.45515137 22.83416992 -60.14038086 22.97412109 C-63.99539121 23.73179628 -67.64311629 24.08324096 -71.5625 24.125 C-74.53919399 24.37182371 -75.6329754 24.64491763 -77.80078125 26.7421875 C-79.43775006 29.08999884 -80.74249185 31.42979525 -82 34 C-82.40089844 34.79921875 -82.80179688 35.5984375 -83.21484375 36.421875 C-85.02907972 40.26986303 -86.25798477 43.79769591 -87 48 C-86.30519531 48.09796875 -85.61039063 48.1959375 -84.89453125 48.296875 C-77.50630709 49.38310314 -70.15644706 50.64843791 -62.8125 52 C-61.87962158 52.1659668 -60.94674316 52.33193359 -59.9855957 52.50292969 C-59.10991943 52.66696289 -58.23424316 52.83099609 -57.33203125 53 C-56.54546143 53.144375 -55.7588916 53.28875 -54.94848633 53.4375 C-53 54 -53 54 -51 56 C-55.42840931 56.57530687 -59.85752181 57.14476017 -64.28735352 57.70898438 C-65.79178786 57.90141766 -67.29602467 58.09540223 -68.80004883 58.29101562 C-70.97165672 58.57317349 -73.14393219 58.84960035 -75.31640625 59.125 C-77.27235718 59.37636719 -77.27235718 59.37636719 -79.26782227 59.6328125 C-82.8737814 59.98758208 -86.3794816 60.06556683 -90 60 C-89.34908323 69.04235055 -89.34908323 69.04235055 -88 78 C-88.99 78 -89.98 78 -91 78 C-93.25871817 71.78852503 -93.6790596 65.58088641 -93 59 C-90.09472388 56.09472388 -86.78900975 56.28735681 -82.875 55.875 C-82.12089844 55.78863281 -81.36679688 55.70226562 -80.58984375 55.61328125 C-78.72742873 55.40110739 -76.86381069 55.19954237 -75 55 C-80.30094216 53.19695845 -85.60308488 51.49276376 -91 50 C-90.52437998 43.84451187 -89.12374236 39.28316717 -86.3125 33.8125 C-85.98572266 33.12736328 -85.65894531 32.44222656 -85.32226562 31.73632812 C-82.91694967 26.95788973 -80.37412256 24.10004928 -76 21 C-73.125 20.1875 -73.125 20.1875 -71 20 C-71.20625 19.38125 -71.4125 18.7625 -71.625 18.125 C-71.74875 17.42375 -71.8725 16.7225 -72 16 C-70 14 -70 14 -68.0546875 13.8046875 C-66.03645833 13.86979167 -64.01822917 13.93489583 -62 14 C-62.33 12.02 -62.66 10.04 -63 8 C-44.70060155 -6.43123292 -21.30642504 -6.34659469 0 0 Z " fill="#293A53" transform="translate(107,16)"/>
<path d="M0 0 C4.02106649 0.13980455 8.0417861 0.28792319 12.0625 0.4375 C13.19623047 0.47681641 14.32996094 0.51613281 15.49804688 0.55664062 C21.06738395 0.76772337 26.50510526 1.05095432 32 2 C32.50757862 3.41396902 33.00574925 4.83131729 33.5 6.25 C33.7784375 7.03890625 34.056875 7.8278125 34.34375 8.640625 C35 11 35 11 35 15 C27.90294338 16.34495828 21.2274605 17.24091535 14 17 C12.42090255 29.49060325 12.42090255 29.49060325 11 42 C8.625 42.625 8.625 42.625 6 43 C3.63809421 40.63809421 3.67861742 39.90628815 3.40234375 36.67578125 C3.32306641 35.81146484 3.24378906 34.94714844 3.16210938 34.05664062 C3.08798828 33.15107422 3.01386719 32.24550781 2.9375 31.3125 C2.7813123 29.53763982 2.62378417 27.76289704 2.46484375 25.98828125 C2.38919189 25.13129639 2.31354004 24.27431152 2.2355957 23.39135742 C1.92568408 20.24567418 1.44903045 17.12849087 1 14 C0.79074924 11.52257437 0.60288268 9.04324025 0.4375 6.5625 C0.35371094 5.32628906 0.26992187 4.09007812 0.18359375 2.81640625 C0.12300781 1.88699219 0.06242187 0.95757812 0 0 Z " fill="#FBB905" transform="translate(110,52)"/>
<path d="M0 0 C7.92747828 1.0914644 16.06670227 6.7511562 21 13 C21.625 15.625 21.625 15.625 22 18 C23.49985609 19.66710346 23.49985609 19.66710346 25 21 C25 21.66 25 22.32 25 23 C23.02 23.33 21.04 23.66 19 24 C18.67 25.98 18.34 27.96 18 30 C12.72 30.33 7.44 30.66 2 31 C2 30.01 2 29.02 2 28 C-0.31 28 -2.62 28 -5 28 C-2 26 -2 26 1 26 C0.84402344 24.70964844 0.68804687 23.41929688 0.52734375 22.08984375 C0.33026566 20.37244896 0.133677 18.65499796 -0.0625 16.9375 C-0.16626953 16.08994141 -0.27003906 15.24238281 -0.37695312 14.36914062 C-0.94186047 9.32393367 -0.96798903 4.98886652 0 0 Z " fill="#F9B808" transform="translate(108,18)"/>
<path d="M0 0 C2.65683189 1.49748707 4.84652751 2.84652751 7 5 C7.35897436 11.46153846 7.35897436 11.46153846 5 15 C4.34 15 3.68 15 3 15 C3.28875 15.54269531 3.5775 16.08539063 3.875 16.64453125 C4.24625 17.35996094 4.6175 18.07539062 5 18.8125 C5.556875 19.87404297 5.556875 19.87404297 6.125 20.95703125 C7 23 7 23 7 26 C5.35 26 3.7 26 2 26 C-2 19.25 -2 19.25 -2 17 C-3.32 17 -4.64 17 -6 17 C-6 19.64 -6 22.28 -6 25 C-7.65 25.33 -9.3 25.66 -11 26 C-11.086985 22.22931168 -11.14038579 18.45888068 -11.1875 14.6875 C-11.21263672 13.61564453 -11.23777344 12.54378906 -11.26367188 11.43945312 C-11.27333984 10.41142578 -11.28300781 9.38339844 -11.29296875 8.32421875 C-11.3086792 7.37635498 -11.32438965 6.42849121 -11.34057617 5.4519043 C-11 3 -11 3 -9.7199707 1.19458008 C-6.7363219 -0.87766884 -3.43465468 -0.60916517 0 0 Z " fill="#273852" transform="translate(88,96)"/>
<path d="M0 0 C5.61 0 11.22 0 17 0 C16.67 1.65 16.34 3.3 16 5 C12.7 5 9.4 5 6 5 C6 6.65 6 8.3 6 10 C8.64 10 11.28 10 14 10 C14.042721 11.66611905 14.04063832 13.33382885 14 15 C13 16 13 16 9.4375 16.0625 C8.303125 16.041875 7.16875 16.02125 6 16 C6 17.98 6 19.96 6 22 C6.62648438 21.98839844 7.25296875 21.97679688 7.8984375 21.96484375 C8.71570312 21.95582031 9.53296875 21.94679688 10.375 21.9375 C11.18710937 21.92589844 11.99921875 21.91429688 12.8359375 21.90234375 C15 22 15 22 17 23 C17 23.99 17 24.98 17 26 C14.73020335 26.10794277 12.45894804 26.18556176 10.1875 26.25 C8.92292969 26.29640625 7.65835938 26.3428125 6.35546875 26.390625 C3 26 3 26 1.30859375 24.30078125 C-0.25027541 21.55996353 -0.34766121 19.93257587 -0.29296875 16.796875 C-0.28330078 15.8171875 -0.27363281 14.8375 -0.26367188 13.828125 C-0.2259668 12.30445312 -0.2259668 12.30445312 -0.1875 10.75 C-0.17396484 9.71875 -0.16042969 8.6875 -0.14648438 7.625 C-0.11118034 5.08310951 -0.05737473 2.5414881 0 0 Z " fill="#1F314C" transform="translate(46,96)"/>
<path d="M0 0 C5.81689987 -0.07968356 11.27065855 0.00359279 17 1 C17.50757862 2.41396902 18.00574925 3.83131729 18.5 5.25 C18.7784375 6.03890625 19.056875 6.8278125 19.34375 7.640625 C20 10 20 10 20 14 C12.90294338 15.34495828 6.2274605 16.24091535 -1 16 C-0.67 10.72 -0.34 5.44 0 0 Z " fill="#EDEDEB" transform="translate(125,53)"/>
<path d="M0 0 C0.495 1.98 0.495 1.98 1 4 C-0.47943027 3.70967339 -1.95852623 3.41764321 -3.4375 3.125 C-4.36046875 2.94453125 -5.2834375 2.7640625 -6.234375 2.578125 C-7.87904357 2.23432423 -9.51852315 1.8599609 -11.140625 1.421875 C-28.15664098 -3.12438881 -43.77505074 1.47117894 -59 9 C-54.71 9.33 -50.42 9.66 -46 10 C-46 10.33 -46 10.66 -46 11 C-49.3 11 -52.6 11 -56 11 C-56 11.99 -56 12.98 -56 14 C-57.98 14 -59.96 14 -62 14 C-62.33 12.02 -62.66 10.04 -63 8 C-44.70060155 -6.43123292 -21.30642504 -6.34659469 0 0 Z " fill="#1C2E49" transform="translate(107,16)"/>
<path d="M0 0 C3.68252024 0.58887148 5.50005926 2.10582217 8.25 4.5625 C16.97984134 11.74036954 27.74076074 17.39153725 39 19 C39 19.66 39 20.32 39 21 C44.28 21.66 49.56 22.32 55 23 C55 23.33 55 23.66 55 24 C35.7689782 25.31120603 18.76127821 18.31597579 4.109375 6.11328125 C2.12961709 4.12985713 1.04592823 2.57414558 0 0 Z " fill="#34445C" transform="translate(32,124)"/>
<path d="M0 0 C3.80625982 1.49531636 5.77940501 3.58980056 8 7 C8.25 9.8125 8.25 9.8125 8 12 C9.65 12.66 11.3 13.32 13 14 C12.67 15.65 12.34 17.3 12 19 C10.02 19.33 8.04 19.66 6 20 C6.33 19.34 6.66 18.68 7 18 C0.07 18 -6.86 18 -14 18 C-14 17.67 -14 17.34 -14 17 C-10.04 17 -6.08 17 -2 17 C-2 15.02 -2 13.04 -2 11 C-1 10 -1 10 2.0625 9.9375 C3.5165625 9.9684375 3.5165625 9.9684375 5 10 C4.6390625 9.52949219 4.278125 9.05898438 3.90625 8.57421875 C3.4421875 7.95160156 2.978125 7.32898437 2.5 6.6875 C2.0359375 6.07261719 1.571875 5.45773438 1.09375 4.82421875 C0 3 0 3 0 0 Z " fill="#253651" transform="translate(128,31)"/>
<path d="M0 0 C0.99 0 1.98 0 3 0 C3.11667875 3.22886009 3.18740546 6.45717445 3.25 9.6875 C3.30027344 11.05551758 3.30027344 11.05551758 3.3515625 12.45117188 C3.4146791 16.79043791 3.4187062 19.2974252 1.15625 23.09375 C-1.27016861 25.23884471 -2.80459924 25.7337166 -6 26 C-5.67 24.35 -5.34 22.7 -5 21 C-4.34 21 -3.68 21 -3 21 C-2.98018066 20.43490723 -2.96036133 19.86981445 -2.93994141 19.28759766 C-2.84481764 16.73292003 -2.73508942 14.17907459 -2.625 11.625 C-2.5940625 10.73554687 -2.563125 9.84609375 -2.53125 8.9296875 C-2.49257812 8.07890625 -2.45390625 7.228125 -2.4140625 6.3515625 C-2.36693115 5.17327881 -2.36693115 5.17327881 -2.31884766 3.97119141 C-2 2 -2 2 0 0 Z " fill="#1B2D48" transform="translate(125,96)"/>
<path d="M0 0 C3.875 0.875 3.875 0.875 5 2 C5.20331861 5.61078783 5.34705115 9.21473801 5.4296875 12.83007812 C5.5141348 14.89375904 5.74813769 16.95000594 6 19 C6.99 19.66 7.98 20.32 9 21 C9 22.32 9 23.64 9 25 C6.1875 24.8125 6.1875 24.8125 3 24 C-0.88724563 19.53686612 -0.34985392 14.7699771 -0.1875 9.1875 C-0.17396484 8.30384766 -0.16042969 7.42019531 -0.14648438 6.50976562 C-0.11129217 4.33957977 -0.05748985 2.16970967 0 0 Z " fill="#162945" transform="translate(108,97)"/>
<path d="M0 0 C3.04172719 -0.0271045 6.08320997 -0.04688964 9.125 -0.0625 C9.9809375 -0.07087891 10.836875 -0.07925781 11.71875 -0.08789062 C16.26678411 -0.10538306 20.52383164 0.06807642 25 1 C25 1.66 25 2.32 25 3 C1.41761516 5.38776806 1.41761516 5.38776806 -10 5 C-6.48375245 3.05841983 -4.0284349 2.81688932 0 3 C0 2.01 0 1.02 0 0 Z " fill="#0D213E" transform="translate(51,27)"/>
<path d="M0 0 C0.66 0 1.32 0 2 0 C2 8.25 2 16.5 2 25 C0.68 25 -0.64 25 -2 25 C-2.05786668 21.20839703 -2.09355054 17.41690689 -2.125 13.625 C-2.14175781 12.54476562 -2.15851563 11.46453125 -2.17578125 10.3515625 C-2.18222656 9.3203125 -2.18867187 8.2890625 -2.1953125 7.2265625 C-2.20578613 6.27346191 -2.21625977 5.32036133 -2.22705078 4.33837891 C-2 2 -2 2 0 0 Z " fill="#0C1F3C" transform="translate(79,97)"/>
<path d="M0 0 C0.66 0.99 1.32 1.98 2 3 C-2.95 3.33 -7.9 3.66 -13 4 C-12.34420945 13.04272597 -12.34420945 13.04272597 -11 22 C-11.99 22 -12.98 22 -14 22 C-16.25871817 15.78852503 -16.6790596 9.58088641 -16 3 C-12.00582498 -0.99417502 -5.35036408 -0.35669094 0 0 Z " fill="#283953" transform="translate(30,72)"/>
<path d="M0 0 C6.42200129 -0.29190915 12.75415744 0.46460319 19 2 C19.66 2.66 20.32 3.32 21 4 C10.2643063 5.36326269 -0.16129087 6.31366039 -11 6 C-11 5.67 -11 5.34 -11 5 C-9.01432292 4.51171875 -7.02864583 4.0234375 -5.04296875 3.53515625 C-3.34316798 3.08989295 -1.66698046 2.55566015 0 2 C0 1.34 0 0.68 0 0 Z " fill="#192B46" transform="translate(35,68)"/>
<path d="M0 0 C3.7595188 0.52215539 6.36771463 1.17273053 9 4 C9.5625 6.875 9.5625 6.875 9 10 C6.75 12.875 6.75 12.875 4 15 C2.68 15 1.36 15 0 15 C0 13.68 0 12.36 0 11 C0.99 10.67 1.98 10.34 3 10 C3 8.68 3 7.36 3 6 C2.01 5.67 1.02 5.34 0 5 C0 3.35 0 1.7 0 0 Z " fill="#1B2D48" transform="translate(25,107)"/>
<path d="M0 0 C0 0.66 0 1.32 0 2 C-10.47584118 5.35226918 -21.43417616 4.72666422 -32 2 C-32 1.67 -32 1.34 -32 1 C-28.16678585 0.8305164 -24.33341274 0.6649259 -20.5 0.5 C-18.88351563 0.42845703 -18.88351563 0.42845703 -17.234375 0.35546875 C-11.4831177 0.10998826 -5.75643239 -0.05588769 0 0 Z " fill="#1A2D48" transform="translate(100,143)"/>
<path d="M0 0 C2.125 0.9375 2.125 0.9375 4 2 C0.45778993 4.36147338 -3.17989337 6.12125903 -7 8 C-2.71 8.33 1.58 8.66 6 9 C6 9.33 6 9.66 6 10 C2.7 10 -0.6 10 -4 10 C-4 10.99 -4 11.98 -4 13 C-5.98 13 -7.96 13 -10 13 C-10.33 11.02 -10.66 9.04 -11 7 C-9.54261898 6.01941648 -8.08406325 5.04057868 -6.625 4.0625 C-5.81289063 3.51722656 -5.00078125 2.97195312 -4.1640625 2.41015625 C-2 1 -2 1 0 0 Z " fill="#293A53" transform="translate(55,17)"/>
<path d="M0 0 C0 1.32 0 2.64 0 4 C-0.99 4.495 -0.99 4.495 -2 5 C-2 6.32 -2 7.64 -2 9 C-1.34 9.33 -0.68 9.66 0 10 C0 11.32 0 12.64 0 14 C-2.3125 14.25 -2.3125 14.25 -5 14 C-7.49602608 11.76218351 -7.9534013 10.31953394 -8.4375 7 C-8 4 -8 4 -6.25 1.625 C-4 0 -4 0 0 0 Z " fill="#1C2E49" transform="translate(23,97)"/>
<path d="M0 0 C1.5 1.3125 1.5 1.3125 3 3 C3 3.99 3 4.98 3 6 C4.33804687 6.18175781 4.33804687 6.18175781 5.703125 6.3671875 C6.87359375 6.53476563 8.0440625 6.70234375 9.25 6.875 C10.99023438 7.11863281 10.99023438 7.11863281 12.765625 7.3671875 C15.58193313 7.91820431 17.55217557 8.55796482 20 10 C19.34 10 18.68 10 18 10 C18 10.66 18 11.32 18 12 C1.125 10.125 1.125 10.125 -1 8 C-0.82364548 5.30917128 -0.38164079 2.67148554 0 0 Z " fill="#263751" transform="translate(17,58)"/>
<path d="M0 0 C0.91330078 0.01353516 1.82660156 0.02707031 2.76757812 0.04101562 C4.99153259 0.07594685 7.21417952 0.12498414 9.4375 0.1875 C9.4375 0.5175 9.4375 0.8475 9.4375 1.1875 C8.8290625 1.21328125 8.220625 1.2390625 7.59375 1.265625 C0.81070009 1.70452823 -5.4614234 3.01705597 -11.99023438 4.81542969 C-15.60621316 5.79199482 -18.81259298 6.41191529 -22.5625 6.1875 C-16.76749068 -0.28980848 -8.11649617 -0.23224017 0 0 Z " fill="#1C2E49" transform="translate(78.5625,12.8125)"/>
<path d="M0 0 C2.5 0.4375 2.5 0.4375 4.125 1.875 C6.87157976 6.99362591 9.07003093 12.54718036 8.5 18.4375 C7.84 17.1175 7.18 15.7975 6.5 14.4375 C6.17 15.4275 5.84 16.4175 5.5 17.4375 C3.85 17.4375 2.2 17.4375 0.5 17.4375 C1.82 17.1075 3.14 16.7775 4.5 16.4375 C3.51 12.1475 2.52 7.8575 1.5 3.4375 C-0.81 3.4375 -3.12 3.4375 -5.5 3.4375 C-3.73470379 1.20765215 -2.84766278 0.49834099 0 0 Z " fill="#2B3C55" transform="translate(140.5,50.5625)"/>
<path d="M0 0 C0.33 0 0.66 0 1 0 C1 1.65 1 3.3 1 5 C3.64 5 6.28 5 9 5 C9.042721 6.66611905 9.04063832 8.33382885 9 10 C8 11 8 11 4.4375 11.0625 C3.303125 11.041875 2.16875 11.02125 1 11 C1 12.65 1 14.3 1 16 C0.67 16 0.34 16 0 16 C0 10.72 0 5.44 0 0 Z " fill="#ACB2BB" transform="translate(51,101)"/>
<path d="M0 0 C2.33294775 -0.04241723 4.66702567 -0.04092937 7 0 C8 1 8 1 8.1875 3.4375 C8 6 8 6 6 8 C2.875 8.125 2.875 8.125 0 8 C0 5.36 0 2.72 0 0 Z " fill="#DDDFE2" transform="translate(82,101)"/>
<path d="M0 0 C-1.32 0.33 -2.64 0.66 -4 1 C-4 1.66 -4 2.32 -4 3 C-10.6 3 -17.2 3 -24 3 C-24 2.34 -24 1.68 -24 1 C-15.97667603 0.09958689 -8.07029553 -0.11547323 0 0 Z " fill="#404E64" transform="translate(114,49)"/>
<path d="M0 0 C2 1 2 1 3 3 C-1.62 4.65 -6.24 6.3 -11 8 C-11 7.34 -11 6.68 -11 6 C-12.32 5.67 -13.64 5.34 -15 5 C-14.00419922 4.70996094 -14.00419922 4.70996094 -12.98828125 4.4140625 C-7.42543723 2.78069963 -7.42543723 2.78069963 -2 0.75 C-1.34 0.5025 -0.68 0.255 0 0 Z " fill="#2D3E57" transform="translate(111,137)"/>
<path d="M0 0 C1.98 0.99 1.98 0.99 4 2 C4 5.96 4 9.92 4 14 C3.34 14 2.68 14 2 14 C1.67 15.32 1.34 16.64 1 18 C0.67 12.06 0.34 6.12 0 0 Z " fill="#122541" transform="translate(146,74)"/>
<path d="M0 0 C0.33 1.32 0.66 2.64 1 4 C4.3 4 7.6 4 11 4 C11 4.66 11 5.32 11 6 C5.79826905 6.86809439 0.83021184 7.12515348 -4.4375 7.0625 C-5.16904297 7.05798828 -5.90058594 7.05347656 -6.65429688 7.04882812 C-8.43623419 7.03718148 -10.21812863 7.01925191 -12 7 C-12 6.67 -12 6.34 -12 6 C-8.04 6 -4.08 6 0 6 C0 4.02 0 2.04 0 0 Z " fill="#67675B" transform="translate(126,42)"/>
<path d="M0 0 C4 0 4 0 6.25 1.75 C8 4 8 4 8 8 C5.2980567 7.63487253 3.41609148 7.30130763 1.1875 5.6875 C0 4 0 4 0 0 Z " fill="#182B46" transform="translate(15,114)"/>
<path d="M0 0 C2.60423592 -0.02697137 5.20819244 -0.04682489 7.8125 -0.0625 C8.55048828 -0.07087891 9.28847656 -0.07925781 10.04882812 -0.08789062 C13.29922068 -0.10259828 15.89404895 -0.03531702 19 1 C19 1.66 19 2.32 19 3 C16.20775927 3.08071788 13.41783434 3.14035408 10.625 3.1875 C9.8309375 3.21263672 9.036875 3.23777344 8.21875 3.26367188 C6.14413852 3.29004405 4.06899135 3.15486462 2 3 C1.34 2.01 0.68 1.02 0 0 Z " fill="#36465E" transform="translate(75,12)"/>
<path d="M0 0 C2.74148672 0.37047118 4.58593199 0.68587944 6.8125 2.375 C8 4 8 4 8 7 C4.62537285 6.45276317 2.91765 5.9451 0 4 C0 2.68 0 1.36 0 0 Z " fill="#22334E" transform="translate(25,97)"/>
<path d="M0 0 C0.99 0.33 1.98 0.66 3 1 C2.88490339 2.41750563 2.75746342 3.83401169 2.625 5.25 C2.55539063 6.03890625 2.48578125 6.8278125 2.4140625 7.640625 C1.97458992 10.14478952 1.38572115 11.86957156 0 14 C-0.99 14.33 -1.98 14.66 -3 15 C-2.01 10.05 -1.02 5.1 0 0 Z " fill="#2C3D56" transform="translate(146,87)"/>
<path d="M0 0 C0.33 0.66 0.66 1.32 1 2 C5.62 2 10.24 2 15 2 C15 2.33 15 2.66 15 3 C11.7 3 8.4 3 5 3 C5 3.99 5 4.98 5 6 C3.02 6 1.04 6 -1 6 C-1.042721 4.33388095 -1.04063832 2.66617115 -1 1 C-0.67 0.67 -0.34 0.34 0 0 Z " fill="#445369" transform="translate(46,24)"/>
<path d="M0 0 C1.5 1.3125 1.5 1.3125 3 3 C3 3.99 3 4.98 3 6 C5.97 6.495 5.97 6.495 9 7 C5.55892734 9.29404844 4.03160191 9.26293056 0 9 C-0.33 8.67 -0.66 8.34 -1 8 C-0.82364548 5.30917128 -0.38164079 2.67148554 0 0 Z " fill="#3E4D64" transform="translate(17,58)"/>
<path d="M0 0 C2.64 0.33 5.28 0.66 8 1 C8 1.99 8 2.98 8 4 C5.111391 4 2.25440584 3.72583575 -0.625 3.5 C-1.81351563 3.4071875 -3.00203125 3.314375 -4.2265625 3.21875 C-5.14179688 3.1465625 -6.05703125 3.074375 -7 3 C-7 2.67 -7 2.34 -7 2 C-3.535 1.505 -3.535 1.505 0 1 C0 0.67 0 0.34 0 0 Z " fill="#47556B" transform="translate(141,72)"/>
<path d="M0 0 C2.64 0.33 5.28 0.66 8 1 C8.33 2.65 8.66 4.3 9 6 C6.69 6.66 4.38 7.32 2 8 C2.474375 7.566875 2.94875 7.13375 3.4375 6.6875 C5.23686957 4.97690387 5.23686957 4.97690387 6 2 C4.02 2 2.04 2 0 2 C0 1.34 0 0.68 0 0 Z " fill="#2A3B54" transform="translate(132,43)"/>
<path d="M0 0 C1.33998047 0.31324219 1.33998047 0.31324219 2.70703125 0.6328125 C3.60808594 0.83648437 4.50914063 1.04015625 5.4375 1.25 C6.46810547 1.50136719 6.46810547 1.50136719 7.51953125 1.7578125 C6.52953125 2.0878125 5.53953125 2.4178125 4.51953125 2.7578125 C4.51953125 3.4178125 4.51953125 4.0778125 4.51953125 4.7578125 C1.21953125 3.7678125 -2.08046875 2.7778125 -5.48046875 1.7578125 C-2.48046875 -0.2421875 -2.48046875 -0.2421875 0 0 Z " fill="#2E3F58" transform="translate(59.48046875,140.2421875)"/>
<path d="M0 0 C2.31 0 4.62 0 7 0 C7 1.32 7 2.64 7 4 C4.69 4 2.38 4 0 4 C0 2.68 0 1.36 0 0 Z " fill="#192C47" transform="translate(52,107)"/>
<path d="M0 0 C1.65 0 3.3 0 5 0 C5 0.99 5 1.98 5 3 C6.98 3 8.96 3 11 3 C10.67 3.99 10.34 4.98 10 6 C10 5.34 10 4.68 10 4 C6.7 4 3.4 4 0 4 C0 2.68 0 1.36 0 0 Z " fill="#091C3B" transform="translate(127,42)"/>
<path d="M0 0 C0.66 0 1.32 0 2 0 C6 4.47058824 6 4.47058824 6 7 C4.02 7 2.04 7 0 7 C0 4.69 0 2.38 0 0 Z " fill="#E3E1DA" transform="translate(127,34)"/>
<path d="M0 0 C5.12583611 -0.10251672 9.94997778 -0.03590199 15 1 C15 1.66 15 2.32 15 3 C11.7 3 8.4 3 5 3 C5 2.67 5 2.34 5 2 C3.35 1.67 1.7 1.34 0 1 C0 0.67 0 0.34 0 0 Z " fill="#3C4B63" transform="translate(61,27)"/>
<path d="M0 0 C2 2 2 2 2.125 4.625 C2.08375 5.40875 2.0425 6.1925 2 7 C-0.97 7 -3.94 7 -7 7 C-6.67 6.34 -6.34 5.68 -6 5 C-4.02 5 -2.04 5 0 5 C0 3.35 0 1.7 0 0 Z " fill="#10233F" transform="translate(146,63)"/>
<path d="M0 0 C0.94875 0.04125 1.8975 0.0825 2.875 0.125 C2.875 0.785 2.875 1.445 2.875 2.125 C2.111875 2.41375 1.34875 2.7025 0.5625 3 C-2.27529308 4.08769013 -2.27529308 4.08769013 -5.125 6.125 C-5.125 1.30076797 -4.90244643 0.19609786 0 0 Z " fill="#132542" transform="translate(32.125,37.875)"/>
<path d="M0 0 C0.99 0.33 1.98 0.66 3 1 C3.33 3.64 3.66 6.28 4 9 C3.34 7.68 2.68 6.36 2 5 C1.67 5.99 1.34 6.98 1 8 C-0.65 8 -2.3 8 -4 8 C-2.68 7.67 -1.36 7.34 0 7 C0 4.69 0 2.38 0 0 Z " fill="#4F5D72" transform="translate(145,60)"/>
<path d="M0 0 C0 0.99 0 1.98 0 3 C-3.3 2.34 -6.6 1.68 -10 1 C-10 0.67 -10 0.34 -10 0 C-6.30458414 -0.95024979 -3.69541586 -0.95024979 0 0 Z " fill="#4B555E" transform="translate(108,17)"/>
<path d="M0 0 C1.27875 -0.061875 2.5575 -0.12375 3.875 -0.1875 C4.95394531 -0.23970703 4.95394531 -0.23970703 6.0546875 -0.29296875 C6.69664063 -0.19628906 7.33859375 -0.09960938 8 0 C8.66 0.99 9.32 1.98 10 3 C4.06 3.495 4.06 3.495 -2 4 C-1.34 2.68 -0.68 1.36 0 0 Z " fill="#3F4E65" transform="translate(22,72)"/>
<path d="M0 0 C1 3 1 3 -0.4375 6.1875 C-1.2109375 7.5796875 -1.2109375 7.5796875 -2 9 C-2.33 9 -2.66 9 -3 9 C-3.36923077 3.46153846 -3.36923077 3.46153846 -1.5 1.125 C-1.005 0.75375 -0.51 0.3825 0 0 Z " fill="#132643" transform="translate(21,53)"/>
<path d="M0 0 C3.375 -0.1875 3.375 -0.1875 7 0 C7.66 0.99 8.32 1.98 9 3 C6.69 3.33 4.38 3.66 2 4 C2 3.01 2 2.02 2 1 C1.34 0.67 0.68 0.34 0 0 Z " fill="#253750" transform="translate(133,68)"/>
<path d="M0 0 C4.75 0.75 4.75 0.75 7 3 C6.67 3.66 6.34 4.32 6 5 C2.83884224 3.63016497 2.0072908 3.0109362 0 0 Z " fill="#1E304B" transform="translate(38,130)"/>
<path d="M0 0 C0.66 0 1.32 0 2 0 C2.33 1.65 2.66 3.3 3 5 C2.34 5 1.68 5 1 5 C0.67 5.99 0.34 6.98 0 8 C-0.79953138 4.71303767 -1.09658936 3.28976808 0 0 Z " fill="#3C4B63" transform="translate(144,55)"/>
</svg>
